<?xml version="1.0" encoding="UTF-8"?><svg xmlns="http://www.w3.org/2000/svg" viewBox="0 0 1189.58 237.59"><defs><style>.d{fill:#231f20;}</style></defs><g id="a"/><g id="b"><g id="c"><g><polygon class="d" points="645.12 28.56 602.74 28.56 602.55 28.56 524.25 237.58 567.61 237.58 623.94 85.7 663.66 192.75 680.25 237.58 723.62 237.58 645.31 28.56 645.12 28.56"/><polygon class="d" points="594.81 237.57 653.05 237.58 623.92 208.45 594.81 237.57"/><polygon class="d" points="1111.27 28.56 1111.08 28.56 1068.7 28.56 1068.51 28.56 990.21 237.58 1033.57 237.58 1089.9 85.7 1129.62 192.75 1146.21 237.58 1189.58 237.58 1111.27 28.56"/><polygon class="d" points="1060.77 237.57 1119.01 237.58 1089.88 208.45 1060.77 237.57"/><polygon class="d" points="237.41 28.52 195.02 28.52 194.84 28.52 116.53 237.55 159.89 237.55 216.22 85.66 255.94 192.71 272.54 237.55 315.9 237.55 237.59 28.52 237.41 28.52"/><polygon class="d" points="187.09 237.53 245.34 237.55 216.21 208.41 187.09 237.53"/><polygon class="d" points="42.92 161.05 42.92 133.7 0 176.62 .07 225.34 .07 237.52 55.1 237.54 42.9 225.34 42.92 161.05"/><polygon class="d" points="152.68 65.01 152.68 30.77 152.68 28.53 0 28.53 0 28.54 0 28.54 0 89.47 42.92 132.39 42.92 65.01 118.44 65.01 50.4 133.06 76.21 158.87 152.68 82.38 152.68 65.01"/><polygon class="d" points="420.07 237.55 478.32 237.53 449.2 208.42 420.07 237.55"/><polygon class="d" points="374.18 200.52 374.18 133.59 331.9 175.87 331.9 237.59 397.37 237.59 434.35 200.52 374.18 200.52"/><polygon class="d" points="331.9 90.19 374.18 132.39 374.18 65.54 449.24 65.54 486.22 28.48 331.9 28.48 331.9 90.19"/><polygon class="d" points="381.67 133.07 410.79 162.2 410.79 103.94 381.67 133.07"/><polygon class="d" points="911.05 133.59 868.77 175.87 868.77 237.59 974.05 237.59 987.98 200.52 911.05 200.52 911.05 133.59"/><polygon class="d" points="911.05 65.54 986.11 65.54 1023.09 28.48 868.77 28.48 868.77 90.19 911.05 132.39 911.05 65.54"/><polygon class="d" points="947.67 103.94 918.54 133.07 947.67 162.2 947.67 103.94"/><polygon class="d" points="719.8 65.53 748.33 65.53 748.33 237.59 791.13 237.59 791.13 28.56 682.84 28.56 719.8 65.53"/><polygon class="d" points="827.78 57.69 856.91 28.56 798.67 28.56 827.78 57.69"/><rect class="d" x="591.09" width="65.69" height="16.37"/></g></g></g></svg>